<svg width="300" height="283" viewBox="0 0 300 283" fill="none" xmlns="http://www.w3.org/2000/svg">
<g opacity="0.93">
<path opacity="0.93" fill-rule="evenodd" clip-rule="evenodd" d="M222.584 136.691C222.31 137.315 221.544 137.523 221.012 137.889C219.348 139.087 217.609 140.9 215.663 141.99C214.419 143.072 213.105 144.069 211.728 144.976C211.046 145.492 210.464 146.141 209.807 146.64C206.995 148.803 204.324 150.799 201.446 152.954C201.155 153.17 200.831 153.395 200.49 153.628C199.716 154.16 198.826 154.884 198.069 155.292C197.746 155.525 197.357 155.651 196.958 155.651C196.559 155.651 196.171 155.525 195.848 155.292C195.981 154.327 197.328 153.387 198.543 152.38C200.598 150.716 203.534 148.52 205.664 147.031C207.253 145.883 208.858 144.685 210.455 143.645C212.053 142.605 213.658 141.466 215.272 140.501C216.453 139.802 217.693 139.261 218.849 138.621C220.005 137.98 221.328 137.298 222.584 136.691Z" fill="white"/>
</g>
<g opacity="0.93">
<path opacity="0.93" fill-rule="evenodd" clip-rule="evenodd" d="M187.413 245.533C187.247 245.908 186.797 246.024 186.481 246.249C185.476 247.137 184.424 247.97 183.328 248.744C182.593 249.387 181.818 249.981 181.008 250.525C180.6 250.841 180.259 251.232 179.876 251.523C178.212 252.821 176.64 254.019 174.943 255.308L174.377 255.716C173.92 256.032 173.404 256.464 172.947 256.73C172.758 256.87 172.529 256.946 172.294 256.946C172.059 256.946 171.83 256.87 171.641 256.73C171.715 256.148 172.472 255.591 173.229 254.992C174.436 253.977 176.191 252.671 177.389 251.781C178.337 251.09 179.277 250.375 180.226 249.751C181.174 249.127 182.114 248.445 183.062 247.871C183.761 247.447 184.493 247.122 185.175 246.74C185.857 246.357 186.673 245.908 187.413 245.533Z" fill="white"/>
</g>
<path fill-rule="evenodd" clip-rule="evenodd" d="M300 0C299.717 0.623906 298.96 0.831877 298.42 1.1979C296.756 2.3958 295.017 4.20929 293.079 5.29905C291.832 6.37685 290.518 7.37434 289.144 8.28548C288.454 8.80124 287.871 9.4501 287.223 9.94923C284.402 12.1121 281.732 14.1086 278.854 16.2632C278.563 16.4795 278.238 16.7041 277.906 16.937C277.124 17.4694 276.242 18.1931 275.476 18.6007C275.155 18.8335 274.767 18.9588 274.37 18.9588C273.973 18.9588 273.586 18.8335 273.264 18.6007C273.388 17.6358 274.736 16.6957 275.959 15.6892C278.005 14.0254 280.95 11.8293 283.071 10.3402C284.669 9.19222 286.274 8.00264 287.871 6.95448C289.469 5.90632 291.066 4.77497 292.688 3.80999C293.869 3.11122 295.1 2.5705 296.257 1.92995C297.413 1.28941 298.736 0.623906 300 0Z" fill="url(#paint0_linear_586_23)"/>
<path d="M238.399 194.331C238.707 194.331 238.957 194.082 238.957 193.774C238.957 193.466 238.707 193.217 238.399 193.217C238.091 193.217 237.842 193.466 237.842 193.774C237.842 194.082 238.091 194.331 238.399 194.331Z" fill="#1B1633"/>
<path d="M194.759 188.583C195.066 188.583 195.316 188.334 195.316 188.026C195.316 187.718 195.066 187.469 194.759 187.469C194.451 187.469 194.201 187.718 194.201 188.026C194.201 188.334 194.451 188.583 194.759 188.583Z" fill="#1B1633"/>
<path d="M211.913 179.641C212.221 179.641 212.47 179.391 212.47 179.083C212.47 178.775 212.221 178.526 211.913 178.526C211.605 178.526 211.355 178.775 211.355 179.083C211.355 179.391 211.605 179.641 211.913 179.641Z" fill="#1B1633"/>
<path d="M149.555 125.669C149.863 125.669 150.113 125.419 150.113 125.111C150.113 124.803 149.863 124.554 149.555 124.554C149.248 124.554 148.998 124.803 148.998 125.111C148.998 125.419 149.248 125.669 149.555 125.669Z" fill="#1B1633"/>
<path d="M181.042 149.527C181.35 149.527 181.599 149.277 181.599 148.969C181.599 148.661 181.35 148.412 181.042 148.412C180.734 148.412 180.484 148.661 180.484 148.969C180.484 149.277 180.734 149.527 181.042 149.527Z" fill="#1B1633"/>
<path d="M29.5398 187.801C29.8476 187.801 30.0971 187.552 30.0971 187.244C30.0971 186.936 29.8476 186.687 29.5398 186.687C29.232 186.687 28.9824 186.936 28.9824 187.244C28.9824 187.552 29.232 187.801 29.5398 187.801Z" fill="#1B1633"/>
<path d="M188.878 117.275C189.185 117.275 189.435 117.025 189.435 116.717C189.435 116.41 189.185 116.16 188.878 116.16C188.57 116.16 188.32 116.41 188.32 116.717C188.32 117.025 188.57 117.275 188.878 117.275Z" fill="#1B1633"/>
<path d="M91.5304 76.9288C91.9485 76.9288 92.2875 76.5899 92.2875 76.1718C92.2875 75.7537 91.9485 75.4148 91.5304 75.4148C91.1124 75.4148 90.7734 75.7537 90.7734 76.1718C90.7734 76.5899 91.1124 76.9288 91.5304 76.9288Z" fill="#1B1633"/>
<path d="M228.242 216.526C228.701 216.526 229.074 216.153 229.074 215.694C229.074 215.234 228.701 214.862 228.242 214.862C227.783 214.862 227.41 215.234 227.41 215.694C227.41 216.153 227.783 216.526 228.242 216.526Z" fill="#1B1633"/>
<path d="M145.953 278.359C146.412 278.359 146.785 277.987 146.785 277.527C146.785 277.068 146.412 276.695 145.953 276.695C145.494 276.695 145.121 277.068 145.121 277.527C145.121 277.987 145.494 278.359 145.953 278.359Z" fill="#1B1633"/>
<path d="M152.191 158.968C152.651 158.968 153.023 158.596 153.023 158.136C153.023 157.677 152.651 157.305 152.191 157.305C151.732 157.305 151.359 157.677 151.359 158.136C151.359 158.596 151.732 158.968 152.191 158.968Z" fill="#1B1633"/>
<path d="M57.6483 243.279C58.1077 243.279 58.4802 242.907 58.4802 242.447C58.4802 241.988 58.1077 241.615 57.6483 241.615C57.1888 241.615 56.8164 241.988 56.8164 242.447C56.8164 242.907 57.1888 243.279 57.6483 243.279Z" fill="#1B1633"/>
<path d="M30.9373 195.438C31.3968 195.438 31.7692 195.066 31.7692 194.606C31.7692 194.147 31.3968 193.774 30.9373 193.774C30.4779 193.774 30.1055 194.147 30.1055 194.606C30.1055 195.066 30.4779 195.438 30.9373 195.438Z" fill="#1B1633"/>
<path d="M176.873 263.984C177.332 263.984 177.705 263.612 177.705 263.153C177.705 262.693 177.332 262.321 176.873 262.321C176.413 262.321 176.041 262.693 176.041 263.153C176.041 263.612 176.413 263.984 176.873 263.984Z" fill="#1B1633"/>
<path d="M227.41 158.136C227.869 158.136 228.242 157.764 228.242 157.305C228.242 156.845 227.869 156.473 227.41 156.473C226.951 156.473 226.578 156.845 226.578 157.305C226.578 157.764 226.951 158.136 227.41 158.136Z" fill="#B44538"/>
<path d="M186.267 215.774C186.865 215.177 186.846 214.189 186.226 213.569C185.605 212.948 184.618 212.93 184.02 213.527C183.422 214.125 183.441 215.113 184.061 215.733C184.682 216.354 185.669 216.372 186.267 215.774Z" fill="#B44538"/>
<path d="M103.435 133.421C103.895 133.421 104.267 133.049 104.267 132.59C104.267 132.13 103.895 131.758 103.435 131.758C102.976 131.758 102.604 132.13 102.604 132.59C102.604 133.049 102.976 133.421 103.435 133.421Z" fill="#B44538"/>
<path d="M26.3709 191.478C26.8304 191.478 27.2028 191.106 27.2028 190.646C27.2028 190.187 26.8304 189.814 26.3709 189.814C25.9115 189.814 25.5391 190.187 25.5391 190.646C25.5391 191.106 25.9115 191.478 26.3709 191.478Z" fill="#B44538"/>
<path d="M0.831875 180.481C1.29131 180.481 1.66375 180.108 1.66375 179.649C1.66375 179.19 1.29131 178.817 0.831875 178.817C0.372443 178.817 0 179.19 0 179.649C0 180.108 0.372443 180.481 0.831875 180.481Z" fill="#B44538"/>
<path d="M201.705 282.277C202.164 282.277 202.537 281.905 202.537 281.445C202.537 280.986 202.164 280.613 201.705 280.613C201.245 280.613 200.873 280.986 200.873 281.445C200.873 281.905 201.245 282.277 201.705 282.277Z" fill="#B44538"/>
<path d="M66.0584 267.587C66.5179 267.587 66.8903 267.214 66.8903 266.755C66.8903 266.295 66.5179 265.923 66.0584 265.923C65.599 265.923 65.2266 266.295 65.2266 266.755C65.2266 267.214 65.599 267.587 66.0584 267.587Z" fill="#B44538"/>
<defs>
<linearGradient id="paint0_linear_586_23" x1="298.891" y1="13.2668" x2="277.704" y2="0.259821" gradientUnits="userSpaceOnUse">
<stop stop-color="#860752"/>
<stop offset="1" stop-color="#FFD9A8"/>
</linearGradient>
</defs>
</svg>
