<svg width="36" height="36" viewBox="0 0 36 36" fill="none" xmlns="http://www.w3.org/2000/svg">
<path fill-rule="evenodd" clip-rule="evenodd" d="M28.2 10.0328C29.6912 10.0328 30.9 8.84377 30.9 7.37705C30.9 5.91033 29.6912 4.72131 28.2 4.72131C26.7088 4.72131 25.5 5.91033 25.5 7.37705C25.5 8.84377 26.7088 10.0328 28.2 10.0328Z" fill="#7F265B"/>
<path fill-rule="evenodd" clip-rule="evenodd" d="M8.10039 10.0328C9.59156 10.0328 10.8004 8.84377 10.8004 7.37705C10.8004 5.91033 9.59156 4.72131 8.10039 4.72131C6.60922 4.72131 5.40039 5.91033 5.40039 7.37705C5.40039 8.84377 6.60922 10.0328 8.10039 10.0328Z" fill="#7F265B"/>
<path fill-rule="evenodd" clip-rule="evenodd" d="M8.10039 31.2787C9.59156 31.2787 10.8004 30.0897 10.8004 28.623C10.8004 27.1562 9.59156 25.9672 8.10039 25.9672C6.60922 25.9672 5.40039 27.1562 5.40039 28.623C5.40039 30.0897 6.60922 31.2787 8.10039 31.2787Z" fill="#7F265B"/>
<path fill-rule="evenodd" clip-rule="evenodd" d="M28.2 31.2787C29.6912 31.2787 30.9 30.0897 30.9 28.623C30.9 27.1562 29.6912 25.9672 28.2 25.9672C26.7088 25.9672 25.5 27.1562 25.5 28.623C25.5 30.0897 26.7088 31.2787 28.2 31.2787Z" fill="#7F265B"/>
<rect y="16.2295" width="36" height="3.54098" rx="1.77049" fill="#555555"/>
<rect x="19.8008" y="21.2459" width="14.7541" height="3.6" rx="1.8" transform="rotate(90 19.8008 21.2459)" fill="#555555"/>
<rect x="19.8008" width="14.7541" height="3.6" rx="1.8" transform="rotate(90 19.8008 0)" fill="#555555"/>
</svg>
