<svg width="112" height="61" viewBox="0 0 112 61" fill="none" xmlns="http://www.w3.org/2000/svg">
<path d="M1.93149e-05 36.8622V3.98006C1.42031e-05 2.92663 0.41764 1.91616 1.16137 1.1701C1.9051 0.424052 2.91426 0.00328173 3.96769 0H108.032C109.086 0.00328173 110.095 0.424052 110.839 1.1701C111.582 1.91616 112 2.92663 112 3.98006V35.5975C112 36.6509 111.582 37.6614 110.839 38.4074C110.095 39.1535 109.086 39.5743 108.032 39.5775C107.235 39.5692 106.454 39.8013 105.79 40.2437C105.126 40.686 104.612 41.3181 104.313 42.0573C102.825 45.6406 100.68 52.5593 102.763 58.9819C105.317 66.8801 89.4587 47.2029 84.9082 41.4498C84.5298 40.9769 84.048 40.597 83.5 40.339C82.9519 40.0811 82.3521 39.9521 81.7465 39.9619L3.98009 40.8546C3.45638 40.8546 2.93781 40.7513 2.45411 40.5505C1.97042 40.3497 1.53111 40.0554 1.16136 39.6845C0.791617 39.3136 0.498705 38.8734 0.299418 38.3891C0.100131 37.9048 -0.0016122 37.3859 1.93149e-05 36.8622Z" fill="#631E4D"/>
<path d="M30.805 21.5212C30.8869 19.8524 29.5395 18.4301 27.7954 18.3445C26.0513 18.2589 24.571 19.5424 24.4891 21.2112C24.4072 22.8801 25.7547 24.3023 27.4988 24.3879C29.2428 24.4735 30.7231 23.1901 30.805 21.5212Z" fill="white"/>
<path d="M16.6195 21.5286C16.7014 19.8597 15.3539 18.4374 13.6098 18.3518C11.8658 18.2662 10.3855 19.5497 10.3036 21.2186C10.2217 22.8874 11.5691 24.3097 13.3132 24.3953C15.0573 24.4809 16.5376 23.1974 16.6195 21.5286Z" fill="white"/>
<path d="M44.9779 21.5255C45.0598 19.8567 43.7123 18.4344 41.9682 18.3488C40.2242 18.2632 38.7439 19.5467 38.662 21.2155C38.5801 22.8844 39.9275 24.3066 41.6716 24.3922C43.4157 24.4779 44.896 23.1944 44.9779 21.5255Z" fill="white"/>
<path d="M59.1517 21.5176C59.2336 19.8488 57.8862 18.4265 56.1421 18.3409C54.398 18.2553 52.9177 19.5388 52.8358 21.2076C52.7539 22.8765 54.1014 24.2987 55.8454 24.3843C57.5895 24.4699 59.0698 23.1865 59.1517 21.5176Z" fill="white"/>
<path d="M73.3353 21.5225C73.4172 19.8536 72.0697 18.4314 70.3257 18.3458C68.5816 18.2602 67.1013 19.5436 67.0194 21.2125C66.9375 22.8813 68.285 24.3036 70.029 24.3892C71.7731 24.4748 73.2534 23.1913 73.3353 21.5225Z" fill="white"/>
<path d="M87.4977 21.717C87.6808 20.0562 86.4222 18.5548 84.6865 18.3635C82.9508 18.1722 81.3954 19.3634 81.2123 21.0242C81.0293 22.685 82.2879 24.1865 84.0236 24.3778C85.7592 24.5691 87.3147 23.3778 87.4977 21.717Z" fill="white"/>
<path d="M101.674 21.7152C101.857 20.0544 100.598 18.553 98.8623 18.3617C97.1266 18.1704 95.5712 19.3616 95.3881 21.0224C95.205 22.6832 96.4637 24.1847 98.1994 24.376C99.935 24.5673 101.49 23.376 101.674 21.7152Z" fill="white"/>
</svg>
