<svg width="111" height="60" viewBox="0 0 111 60" fill="none" xmlns="http://www.w3.org/2000/svg">
<path d="M110.522 36.3716V3.91488C110.518 2.87547 110.103 1.87974 109.367 1.14591C108.631 0.412077 107.634 1.4074e-05 106.595 1.91178e-05H3.92709C3.41196 -0.00159069 2.90156 0.09848 2.42518 0.2945C1.94879 0.490519 1.51579 0.778634 1.15097 1.14232C0.786141 1.50601 0.496671 1.93813 0.299166 2.4139C0.101661 2.88967 -2.51529e-06 3.39975 0 3.91488V35.1237C-2.51529e-06 35.6389 0.101661 36.149 0.299166 36.6247C0.496671 37.1005 0.786141 37.5326 1.15097 37.8963C1.51579 38.26 1.94879 38.5481 2.42518 38.7441C2.90156 38.9401 3.41196 39.0402 3.92709 39.0386C4.71316 39.0337 5.48271 39.2641 6.13677 39.7001C6.79083 40.1362 7.29947 40.7579 7.59728 41.4854C9.05312 45.021 11.1696 51.8476 9.12653 58.1848C6.60633 65.9656 22.2414 46.5625 26.7312 40.8859C27.1041 40.4178 27.5789 40.041 28.1196 39.7845C28.6603 39.5279 29.2525 39.3983 29.8509 39.4056L106.582 40.2987C107.625 40.2987 108.625 39.8853 109.364 39.1492C110.102 38.4131 110.518 37.4143 110.522 36.3716Z" fill="#631E4D"/>
<path d="M30.3957 21.9865C30.4766 20.3398 29.147 18.9365 27.4262 18.852C25.7053 18.7676 24.2447 20.034 24.1639 21.6806C24.0831 23.3272 25.4126 24.7306 27.1335 24.815C28.8544 24.8995 30.3149 23.6331 30.3957 21.9865Z" fill="white"/>
<path d="M16.4114 21.9823C16.4922 20.3356 15.1627 18.9323 13.4418 18.8478C11.7209 18.7634 10.2604 20.0298 10.1795 21.6764C10.0987 23.323 11.4282 24.7264 13.1491 24.8108C14.87 24.8953 16.3306 23.6289 16.4114 21.9823Z" fill="white"/>
<path d="M44.3918 21.9913C44.4727 20.3447 43.1431 18.9413 41.4223 18.8569C39.7014 18.7724 38.2408 20.0388 38.16 21.6854C38.0792 23.3321 39.4087 24.7354 41.1296 24.8199C42.8505 24.9043 44.311 23.6379 44.3918 21.9913Z" fill="white"/>
<path d="M58.3762 21.9835C58.457 20.3369 57.1275 18.9335 55.4066 18.8491C53.6858 18.7646 52.2252 20.031 52.1444 21.6776C52.0636 23.3243 53.3931 24.7276 55.114 24.8121C56.8348 24.8965 58.2954 23.6301 58.3762 21.9835Z" fill="white"/>
<path d="M72.3606 21.9883C72.4414 20.3416 71.1119 18.9383 69.391 18.8539C67.6701 18.7694 66.2096 20.0357 66.1288 21.6824C66.0479 23.329 67.3775 24.7324 69.0983 24.8168C70.8192 24.9013 72.2798 23.6349 72.3606 21.9883Z" fill="white"/>
<path d="M86.3374 22.1731C86.518 20.5344 85.2761 19.0529 83.5636 18.8642C81.851 18.6754 80.3163 19.8508 80.1356 21.4895C79.955 23.1282 81.1969 24.6096 82.9095 24.7984C84.622 24.9871 86.1568 23.8118 86.3374 22.1731Z" fill="white"/>
<path d="M100.324 22.1719C100.504 20.5332 99.2625 19.0517 97.5499 18.863C95.8373 18.6742 94.3026 19.8496 94.122 21.4883C93.9413 23.127 95.1832 24.6084 96.8958 24.7972C98.6084 24.986 100.143 23.8106 100.324 22.1719Z" fill="white"/>
</svg>
